<?xml version="1.0" encoding="UTF-8"?>
<svg version="1.1" xmlns="http://www.w3.org/2000/svg" width="170" height="148">
<path d="M0 0 C7.21381579 5.70394737 7.21381579 5.70394737 8.6875 10.125 C10.20042246 25.57842229 5.04041597 38.78362669 -2.3125 52.125 C-1.6525 51.795 -0.9925 51.465 -0.3125 51.125 C3.125 50.8125 3.125 50.8125 6.6875 51.125 C8.6875 52.8125 8.6875 52.8125 9.6875 55.125 C9.75 57.5625 9.75 57.5625 8.6875 60.125 C3.87621142 64.93628858 -0.25196813 67.02627317 -7.1875 67.25 C-8.21875 67.20875 -9.25 67.1675 -10.3125 67.125 C-10.33828125 67.87523438 -10.3640625 68.62546875 -10.390625 69.3984375 C-10.81018889 76.96965856 -11.37669605 85.15258392 -16.9921875 90.8203125 C-21.75506257 94.39757919 -26.26934014 95.58026026 -32.28515625 95.45703125 C-35.91659963 94.86228619 -38.17833747 92.96390156 -40.3125 90.125 C-43.7032006 83.74024679 -43.66939817 77.19687111 -43.3125 70.125 C-44.3025 70.455 -45.2925 70.785 -46.3125 71.125 C-50.6751213 71.34313106 -53.73109875 71.29541071 -57.9375 70.0625 C-61.23307576 68.86923667 -61.23307576 68.86923667 -64.3125 69.75 C-67.78257843 70.1837598 -69.71564831 69.49566232 -72.6484375 67.609375 C-75.89186354 64.71617807 -77.54155853 61.03221701 -79.3125 57.125 C-79.66054687 56.38378906 -80.00859375 55.64257812 -80.3671875 54.87890625 C-86.41614571 40.9756806 -91.29057839 23.29408212 -86.42578125 8.4921875 C-84.15474605 3.6632495 -80.50581557 0.39481428 -75.9375 -2.25 C-68.31799995 -4.06416668 -61.82313903 -3.78741599 -54.16088867 -2.46191406 C-49.28993609 -1.70080896 -45.96849864 -2.43095025 -41.3125 -3.875 C-37.92578125 -4.03515625 -37.92578125 -4.03515625 -34.625 -3.9375 C-5.568886 -3.15219962 -5.568886 -3.15219962 0 0 Z " fill="#E9ECEF" transform="translate(124.3125,28.875)"/>
<path d="M0 0 C0.75708252 0.00765381 1.51416504 0.01530762 2.29418945 0.02319336 C9.98321458 0.32804458 14.16837555 3.07452011 19.546875 8.40625 C22.44279385 11.55039047 24.49322615 14.4776463 25.75 18.625 C23.73177083 19.08072917 21.71354167 19.53645833 19.6953125 19.9921875 C17.54280036 20.52974428 17.54280036 20.52974428 15.75 22.625 C13.73620421 30.31703967 17.29650622 36.55505422 20.90380859 43.09033203 C22.8487679 46.63111096 23.75 48.49301761 23.75 52.625 C23.42 52.955 23.09 53.285 22.75 53.625 C22.41645162 55.57232838 22.13783739 57.52912208 21.8828125 59.48828125 C21.71910156 60.68517578 21.55539063 61.88207031 21.38671875 63.11523438 C21.04725075 65.65087896 20.71385453 68.18734428 20.38671875 70.72460938 C20.22042969 71.92537109 20.05414063 73.12613281 19.8828125 74.36328125 C19.73730957 75.46712158 19.59180664 76.57096191 19.44189453 77.70825195 C18.7132393 80.77996826 17.90570602 82.34865596 15.75 84.625 C11.16581991 86.81290413 7.638285 87.00847689 2.75 85.625 C-2.40046222 79.95949156 -1.47058791 69.92286141 -1.8125 62.625 C-1.85568359 61.75488281 -1.89886719 60.88476562 -1.94335938 59.98828125 C-2.04824218 57.86731781 -2.14950075 55.74617567 -2.25 53.625 C-3.57 52.965 -4.89 52.305 -6.25 51.625 C-5.84039459 48.68949458 -5.46635794 46.09735397 -4.2265625 43.390625 C-2.97588474 39.8487056 -2.98510603 36.81205755 -3 33.0625 C-2.99484375 31.76183594 -2.9896875 30.46117187 -2.984375 29.12109375 C-3.22560425 25.94609106 -3.45854984 24.20494054 -5.25 21.625 C-9.47028899 19.5148555 -14.82993514 20.37628213 -19.25 21.625 C-19.0441141 13.53929926 -16.76757377 8.19992552 -11.09375 2.43359375 C-7.41562248 0.09434507 -4.23441396 -0.06281133 0 0 Z " fill="#336791" transform="translate(87.25,31.375)"/>
<path d="M0 0 C1.06734375 0.0009668 1.06734375 0.0009668 2.15625 0.00195312 C5.56855376 0.0306012 8.73882668 0.12592014 12 1.1875 C10.86489753 4.06891396 9.68172726 6.91316185 8.4375 9.75 C5.69900516 16.29857461 5.57872782 22.5229141 5.25 29.5625 C5.18167969 30.6865625 5.11335938 31.810625 5.04296875 32.96875 C4.76602998 38.97619099 4.75822964 42.92380071 8 48.1875 C8 52.63860264 7.59596295 53.23265993 4.8125 56.4375 C4.22082031 57.14390625 3.62914063 57.8503125 3.01953125 58.578125 C1 60.1875 1 60.1875 -1.58203125 60.58984375 C-4 60.1875 -4 60.1875 -6.5 57.5 C-15.38441446 43.58667169 -18.83422998 25.49176645 -17 9.1875 C-15.57230761 5.47096744 -13.64958884 3.32062878 -10.328125 1.0390625 C-6.92037117 -0.2073978 -3.5772555 -0.06156509 0 0 Z " fill="#336791" transform="translate(60,31.8125)"/>
<path d="M0 0 C7.21381579 5.70394737 7.21381579 5.70394737 8.6875 10.125 C10.20042246 25.57842229 5.04041597 38.78362669 -2.3125 52.125 C-1.6525 51.795 -0.9925 51.465 -0.3125 51.125 C3.125 50.8125 3.125 50.8125 6.6875 51.125 C8.6875 52.8125 8.6875 52.8125 9.6875 55.125 C9.75 57.5625 9.75 57.5625 8.6875 60.125 C3.87621142 64.93628858 -0.25196813 67.02627317 -7.1875 67.25 C-8.21875 67.20875 -9.25 67.1675 -10.3125 67.125 C-10.33828125 67.87523438 -10.3640625 68.62546875 -10.390625 69.3984375 C-10.81018889 76.96965856 -11.37669605 85.15258392 -16.9921875 90.8203125 C-21.75506257 94.39757919 -26.26934014 95.58026026 -32.28515625 95.45703125 C-35.91659963 94.86228619 -38.17833747 92.96390156 -40.3125 90.125 C-43.7032006 83.74024679 -43.66939817 77.19687111 -43.3125 70.125 C-44.3025 70.455 -45.2925 70.785 -46.3125 71.125 C-50.6751213 71.34313106 -53.73109875 71.29541071 -57.9375 70.0625 C-61.23307576 68.86923667 -61.23307576 68.86923667 -64.3125 69.75 C-67.78257843 70.1837598 -69.71564831 69.49566232 -72.6484375 67.609375 C-75.89186354 64.71617807 -77.54155853 61.03221701 -79.3125 57.125 C-79.66054687 56.38378906 -80.00859375 55.64257812 -80.3671875 54.87890625 C-86.41614571 40.9756806 -91.29057839 23.29408212 -86.42578125 8.4921875 C-84.15474605 3.6632495 -80.50581557 0.39481428 -75.9375 -2.25 C-68.31799995 -4.06416668 -61.82313903 -3.78741599 -54.16088867 -2.46191406 C-49.28993609 -1.70080896 -45.96849864 -2.43095025 -41.3125 -3.875 C-37.92578125 -4.03515625 -37.92578125 -4.03515625 -34.625 -3.9375 C-5.568886 -3.15219962 -5.568886 -3.15219962 0 0 Z M-32.3125 -0.875 C-34.02095822 -0.87770754 -35.72945393 -0.89987784 -37.4375 -0.9375 C-41.27602283 -0.98968536 -43.78462865 -0.44294282 -47.3125 1.125 C-52.68092105 1.44078947 -52.68092105 1.44078947 -55.3125 0.125 C-58.24376923 -0.05309504 -61.12940509 -0.1526927 -64.0625 -0.1875 C-64.86171875 -0.21650391 -65.6609375 -0.24550781 -66.484375 -0.27539062 C-73.16458341 -0.34680733 -76.73196035 1.61614201 -81.5625 6.3125 C-87.94223332 16.56564283 -84.64634878 28.47556125 -82.1875 39.5 C-79.99886658 48.79861003 -77.03263927 59.80667549 -69.3125 66.125 C-66.07555184 67.21398382 -66.07555184 67.21398382 -62.3125 66.125 C-59.80992955 63.631 -57.66078232 61.02734262 -55.5234375 58.21484375 C-54.79382813 57.52519531 -54.06421875 56.83554688 -53.3125 56.125 C-51.6625 56.455 -50.0125 56.785 -48.3125 57.125 C-51.6125 58.775 -54.9125 60.425 -58.3125 62.125 C-57.9825 63.445 -57.6525 64.765 -57.3125 66.125 C-53.41215194 68.41932239 -49.75685518 68.45421149 -45.3125 68.125 C-44.3225 67.465 -43.3325 66.805 -42.3125 66.125 C-42.23773438 67.41535156 -42.16296875 68.70570312 -42.0859375 70.03515625 C-41.95453972 71.75271298 -41.82164774 73.47015586 -41.6875 75.1875 C-41.64238281 76.03505859 -41.59726563 76.88261719 -41.55078125 77.75585938 C-41.0739979 83.36889971 -39.76955643 86.66607074 -36.01000977 90.87597656 C-33.30839673 92.86381668 -30.8229338 92.8940255 -27.55859375 92.61328125 C-22.70323754 91.55776903 -19.39317977 89.69012242 -16.5 85.5 C-14.00151449 78.39904117 -13.03451247 71.63066318 -13.3125 64.125 C-12.136875 64.16625 -10.96125 64.2075 -9.75 64.25 C-4.51514138 64.23146953 -0.11138078 63.50875445 4.125 60.25 C6.08242697 58.02750241 6.08242697 58.02750241 5.6875 54.125 C1.7275 54.125 -2.2325 54.125 -6.3125 54.125 C-4.82846612 50.41491531 -3.28383357 47.07818698 -1.4375 43.5625 C3.83425826 32.98022054 7.35261812 23.14085236 5.6875 11.125 C2.36253105 4.51221258 -2.67030367 1.45386407 -9.42578125 -1.12109375 C-16.95320735 -3.08698446 -24.72776994 -2.01986491 -32.3125 -0.875 Z " fill="#070707" transform="translate(124.3125,28.875)"/>
<path d="M0 0 C4.52895152 2.59363774 8.54544462 5.22227135 10.23046875 10.27734375 C10.35094416 12.60840282 10.40581178 14.94320517 10.41796875 17.27734375 C10.43214844 18.51484375 10.44632812 19.75234375 10.4609375 21.02734375 C10.23046875 24.27734375 10.23046875 24.27734375 8.23046875 27.27734375 C8.23046875 23.97734375 8.23046875 20.67734375 8.23046875 17.27734375 C7.90046875 17.27734375 7.57046875 17.27734375 7.23046875 17.27734375 C7.16859375 16.22546875 7.10671875 15.17359375 7.04296875 14.08984375 C6.05214644 9.44060061 4.97115204 8.16078712 1.23046875 5.27734375 C-5.45333088 1.21785808 -12.06157366 0.53818834 -19.76953125 0.27734375 C-19.76953125 0.93734375 -19.76953125 1.59734375 -19.76953125 2.27734375 C-19.04765625 2.50421875 -18.32578125 2.73109375 -17.58203125 2.96484375 C-11.46693391 5.81855584 -7.43623889 11.7772823 -3.76953125 17.27734375 C-3.54248047 19.5456543 -3.54248047 19.5456543 -3.57421875 22.1640625 C-3.58066406 23.10185547 -3.58710937 24.03964844 -3.59375 25.00585938 C-3.61888672 26.47055664 -3.61888672 26.47055664 -3.64453125 27.96484375 C-3.65355469 28.95291016 -3.66257812 29.94097656 -3.671875 30.95898438 C-3.69544695 33.3986814 -3.72835103 35.83789072 -3.76953125 38.27734375 C-4.09953125 38.27734375 -4.42953125 38.27734375 -4.76953125 38.27734375 C-5.26453125 33.82234375 -5.26453125 33.82234375 -5.76953125 29.27734375 C-6.09953125 29.27734375 -6.42953125 29.27734375 -6.76953125 29.27734375 C-6.76953125 27.62734375 -6.76953125 25.97734375 -6.76953125 24.27734375 C-7.42953125 24.27734375 -8.08953125 24.27734375 -8.76953125 24.27734375 C-9.26453125 25.76234375 -9.26453125 25.76234375 -9.76953125 27.27734375 C-11.41953125 26.94734375 -13.06953125 26.61734375 -14.76953125 26.27734375 C-15.09953125 28.25734375 -15.42953125 30.23734375 -15.76953125 32.27734375 C-16.75953125 31.78234375 -16.75953125 31.78234375 -17.76953125 31.27734375 C-18.08203125 28.02734375 -18.08203125 28.02734375 -17.76953125 24.27734375 C-14.76038231 21.01026776 -12.15593106 19.77864659 -7.76953125 19.27734375 C-11.51519295 12.4764649 -16.24405529 6.09143882 -23.76953125 3.27734375 C-26.6111597 3.00684806 -29.30291292 2.86181503 -32.14453125 2.83984375 C-32.88703125 2.80697266 -33.62953125 2.77410156 -34.39453125 2.74023438 C-38.37654782 2.70153987 -40.98433544 3.01917815 -44.1640625 5.52734375 C-48.91680859 10.54373542 -51.06556389 16.41366197 -51.76953125 23.27734375 C-51.27453125 22.94734375 -50.77953125 22.61734375 -50.26953125 22.27734375 C-46.74491641 20.86749782 -43.51530463 20.63125553 -39.76953125 21.27734375 C-37.33833502 23.14749469 -36.12883952 24.5587272 -34.76953125 27.27734375 C-34.69785775 29.8289203 -34.67644683 32.35207346 -34.70703125 34.90234375 C-34.71154297 35.60875 -34.71605469 36.31515625 -34.72070312 37.04296875 C-34.7324925 38.7877965 -34.75042801 40.53258075 -34.76953125 42.27734375 C-35.42953125 42.27734375 -36.08953125 42.27734375 -36.76953125 42.27734375 C-37.26453125 43.26734375 -37.26453125 43.26734375 -37.76953125 44.27734375 C-37.83011719 43.2409375 -37.89070313 42.20453125 -37.953125 41.13671875 C-38.03756496 39.76691502 -38.12221122 38.397124 -38.20703125 37.02734375 C-38.24634766 36.34542969 -38.28566406 35.66351563 -38.32617188 34.9609375 C-38.53619597 31.63286334 -38.78887127 28.47478973 -39.76953125 25.27734375 C-41.00703125 25.23609375 -42.24453125 25.19484375 -43.51953125 25.15234375 C-44.215625 25.12914063 -44.91171875 25.1059375 -45.62890625 25.08203125 C-48.28992467 25.3248249 -49.6676063 25.58284037 -51.76953125 27.27734375 C-52.40243446 30.55286654 -52.40243446 30.55286654 -52.39453125 34.27734375 C-52.57584704 41.08365954 -52.57584704 41.08365954 -54.76953125 43.27734375 C-54.85782186 39.48582792 -54.91035071 35.6945821 -54.95703125 31.90234375 C-54.98216797 30.84144531 -55.00730469 29.78054687 -55.03320312 28.6875 C-55.12206889 19.03075326 -53.70291352 11.05212051 -47.76953125 3.27734375 C-50.99852551 3.18983105 -54.22721241 3.13678229 -57.45703125 3.08984375 C-58.36904297 3.06470703 -59.28105469 3.03957031 -60.22070312 3.01367188 C-67.02398893 2.90146909 -67.02398893 2.90146909 -72.76953125 6.27734375 C-76.02203291 10.28425498 -76.27814499 14.09936619 -76.20703125 19.08984375 C-76.19675903 20.20601074 -76.19675903 20.20601074 -76.1862793 21.34472656 C-75.83280941 33.87900693 -72.25438135 51.81773281 -63.76953125 61.27734375 C-59.57528464 62.04996813 -57.19360201 60.62527799 -53.76953125 58.27734375 C-54.84354233 61.19251667 -55.54763301 63.05544551 -57.76953125 65.27734375 C-61.08203125 65.77734375 -61.08203125 65.77734375 -64.76953125 65.27734375 C-67.02238373 63.23904865 -68.21873918 61.79866463 -69.76953125 59.27734375 C-70.17945313 58.65472656 -70.589375 58.03210938 -71.01171875 57.390625 C-78.11341098 45.10602075 -83.32043168 24.32437803 -79.6328125 10.3515625 C-77.48807731 5.19837523 -73.87588399 1.46298255 -68.76953125 -0.72265625 C-66.69482422 -0.96557617 -66.69482422 -0.96557617 -64.51171875 -0.953125 C-63.72152344 -0.95119141 -62.93132813 -0.94925781 -62.1171875 -0.94726562 C-60.89322266 -0.92889648 -60.89322266 -0.92889648 -59.64453125 -0.91015625 C-58.82082031 -0.90951172 -57.99710938 -0.90886719 -57.1484375 -0.90820312 C-51.05080721 -0.86329423 -51.05080721 -0.86329423 -48.76953125 0.27734375 C-45.65095706 0.4852487 -43.39321914 0.55621979 -40.515625 -0.73046875 C-37.08368754 -1.97045753 -34.28299502 -1.88171845 -30.64453125 -1.78515625 C-2.39605324 -1.09835393 -2.39605324 -1.09835393 0 0 Z " fill="#E7EBEF" transform="translate(119.76953125,29.72265625)"/>
<path d="M0 0 C8.53386714 -0.51982947 15.79457217 -0.29416588 22.62890625 5.34375 C23.81284023 6.50407276 24.9155967 7.74615868 26 9 C26.33 9.33 26.66 9.66 27 10 C29.17852018 23.44458169 21.89189821 38.35793309 16 50 C15.34 49.67 14.68 49.34 14 49 C14.33 48.01 14.66 47.02 15 46 C15.29440293 41.94412621 15.35578163 37.88866684 15.4050293 33.82299805 C15.43711212 31.83651668 15.50641848 29.85074992 15.57617188 27.86523438 C15.66134502 20.57367252 15.42834264 15.85933596 10.29711914 10.42456055 C9 9 9 9 9 7 C8.443125 6.731875 7.88625 6.46375 7.3125 6.1875 C4.78774666 4.89100504 2.36285516 3.57523677 0 2 C0 1.34 0 0.68 0 0 Z " fill="#356992" transform="translate(100,30)"/>
<path d="M0 0 C1.58025005 0.21192095 3.16398461 0.39923371 4.75 0.5625 C5.54921875 0.64628906 6.3484375 0.73007812 7.171875 0.81640625 C8.07679687 0.90728516 8.07679687 0.90728516 9 1 C9 1.33 9 1.66 9 2 C7.69675781 2.03867187 7.69675781 2.03867187 6.3671875 2.078125 C-1.90926549 2.48546721 -6.47925542 3.2889449 -12.3125 9.4375 C-17.64963851 20.70479241 -14.01784331 32.5917655 -11 44 C-10.76023437 44.98484375 -10.52046875 45.9696875 -10.2734375 46.984375 C-8.40072585 54.06909135 -5.23515667 61.76484333 0 67 C3.58690822 67.88877638 3.58690822 67.88877638 7 67 C9.47323921 64.5052917 11.58838642 61.90287395 13.69140625 59.08984375 C14.45324219 58.40019531 15.21507812 57.71054688 16 57 C19.27734375 57.19140625 19.27734375 57.19140625 22 58 C18.98112756 61.48331435 16.43090471 62.79157144 12 64 C12.33 65.32 12.66 66.64 13 68 C17.32260939 69.38323501 22.02516175 69.90049843 26.21875 67.98828125 C26.8065625 67.66214844 27.394375 67.33601563 28 67 C28.05534912 67.59538574 28.11069824 68.19077148 28.16772461 68.80419922 C28.42018865 71.49487215 28.67876816 74.18492286 28.9375 76.875 C29.06801758 78.28072266 29.06801758 78.28072266 29.20117188 79.71484375 C29.33168945 81.05869141 29.33168945 81.05869141 29.46484375 82.4296875 C29.543396 83.25710449 29.62194824 84.08452148 29.70288086 84.93701172 C29.89777363 87.0581666 29.89777363 87.0581666 31 89 C30.01 89.33 29.02 89.66 28 90 C25.8416805 83.92972642 25.79147686 78.40629424 26 72 C25.01 72.33 24.02 72.66 23 73 C18.6373787 73.21813106 15.58140125 73.17041071 11.375 71.9375 C8.07942424 70.74423667 8.07942424 70.74423667 5 71.625 C1.52992157 72.0587598 -0.40314831 71.37066232 -3.3359375 69.484375 C-6.57936354 66.59117807 -8.22905853 62.90721701 -10 59 C-10.34804688 58.25878906 -10.69609375 57.51757812 -11.0546875 56.75390625 C-17.10364571 42.8506806 -21.97807839 25.16908212 -17.11328125 10.3671875 C-14.78068266 5.40734629 -11.03899638 2.13804449 -6.3125 -0.5 C-3.70716087 -1.06331657 -2.54419678 -0.66952547 0 0 Z " fill="#0D0D0D" transform="translate(55,27)"/>
<path d="M0 0 C4.52895152 2.59363774 8.54544462 5.22227135 10.23046875 10.27734375 C10.35094416 12.60840282 10.40581178 14.94320517 10.41796875 17.27734375 C10.43214844 18.51484375 10.44632813 19.75234375 10.4609375 21.02734375 C10.23046875 24.27734375 10.23046875 24.27734375 8.23046875 27.27734375 C8.23046875 23.97734375 8.23046875 20.67734375 8.23046875 17.27734375 C7.90046875 17.27734375 7.57046875 17.27734375 7.23046875 17.27734375 C7.16859375 16.22546875 7.10671875 15.17359375 7.04296875 14.08984375 C6.05214644 9.44060061 4.97115204 8.16078712 1.23046875 5.27734375 C-5.45333088 1.21785808 -12.06157366 0.53818834 -19.76953125 0.27734375 C-19.76953125 0.93734375 -19.76953125 1.59734375 -19.76953125 2.27734375 C-19.04765625 2.50421875 -18.32578125 2.73109375 -17.58203125 2.96484375 C-11.46693391 5.81855584 -7.43623889 11.7772823 -3.76953125 17.27734375 C-3.54248047 19.5456543 -3.54248047 19.5456543 -3.57421875 22.1640625 C-3.58066406 23.10185547 -3.58710937 24.03964844 -3.59375 25.00585938 C-3.61050781 25.98232422 -3.62726563 26.95878906 -3.64453125 27.96484375 C-3.65355469 28.95291016 -3.66257813 29.94097656 -3.671875 30.95898438 C-3.69544695 33.3986814 -3.72835103 35.83789072 -3.76953125 38.27734375 C-4.09953125 38.27734375 -4.42953125 38.27734375 -4.76953125 38.27734375 C-5.26453125 33.82234375 -5.26453125 33.82234375 -5.76953125 29.27734375 C-6.09953125 29.27734375 -6.42953125 29.27734375 -6.76953125 29.27734375 C-6.76953125 27.62734375 -6.76953125 25.97734375 -6.76953125 24.27734375 C-7.42953125 24.27734375 -8.08953125 24.27734375 -8.76953125 24.27734375 C-9.09953125 25.26734375 -9.42953125 26.25734375 -9.76953125 27.27734375 C-11.41953125 26.94734375 -13.06953125 26.61734375 -14.76953125 26.27734375 C-15.09953125 28.25734375 -15.42953125 30.23734375 -15.76953125 32.27734375 C-16.42953125 31.94734375 -17.08953125 31.61734375 -17.76953125 31.27734375 C-18.08203125 28.02734375 -18.08203125 28.02734375 -17.76953125 24.27734375 C-14.76038231 21.01026776 -12.15593106 19.77864659 -7.76953125 19.27734375 C-12.10832958 11.39952558 -17.01660692 5.72106872 -25.7109375 2.7890625 C-27.86374762 2.25392374 -29.93780557 1.98883825 -32.14453125 1.77734375 C-33.34078125 1.61234375 -34.53703125 1.44734375 -35.76953125 1.27734375 C-36.42953125 0.28734375 -37.08953125 -0.70265625 -37.76953125 -1.72265625 C-36.30580078 -1.70525391 -36.30580078 -1.70525391 -34.8125 -1.6875 C-33.54019531 -1.67847656 -32.26789063 -1.66945313 -30.95703125 -1.66015625 C-29.06017578 -1.64275391 -29.06017578 -1.64275391 -27.125 -1.625 C-4.95263806 -2.27029575 -4.95263806 -2.27029575 0 0 Z " fill="#EAECEF" transform="translate(119.76953125,29.72265625)"/>
<path d="M0 0 C1.85625 0.061875 1.85625 0.061875 3.75 0.125 C7.71917267 9.00007009 5.8624596 17.03991075 2.625 25.88671875 C2.33625 26.62535156 2.0475 27.36398438 1.75 28.125 C-1.82666085 27.88113676 -3.79809006 27.49236388 -6.609375 25.20703125 C-8.99011767 20.7346361 -8.68297779 16.79160723 -8.5 11.8125 C-8.48195313 10.88115234 -8.46390625 9.94980469 -8.4453125 8.99023438 C-8.39834888 6.70075803 -8.33269475 4.41341816 -8.25 2.125 C-5.28488271 0.55555147 -3.37367395 -0.1124558 0 0 Z " fill="#396C95" transform="translate(76.25,53.875)"/>
<path d="M0 0 C0.66 0.33 1.32 0.66 2 1 C1 4 1 4 -1.375 5.375 C-4.52631278 7.32581267 -5.42084935 8.65618244 -7 12 C-7.32231477 14.70918635 -7.47600844 17.11013173 -7.4375 19.8125 C-7.42722778 20.92866699 -7.42722778 20.92866699 -7.41674805 22.06738281 C-7.06327816 34.60166318 -3.4848501 52.54038906 5 62 C9.19424661 62.77262438 11.57592924 61.34793424 15 59 C13.92598892 61.91517292 13.22189824 63.77810176 11 66 C7.6875 66.5 7.6875 66.5 4 66 C1.74714752 63.9617049 0.55079207 62.52132088 -1 60 C-1.40992188 59.37738281 -1.81984375 58.75476563 -2.2421875 58.11328125 C-9.34387973 45.828677 -14.55090043 25.04703428 -10.86328125 11.07421875 C-9.0283947 6.66550945 -6.00082107 3.21181804 -1.9296875 0.74609375 C-1.29289062 0.49988281 -0.65609375 0.25367187 0 0 Z " fill="#EAECEE" transform="translate(51,29)"/>
<path d="M0 0 C2.475 0.495 2.475 0.495 5 1 C5.04898438 2.25554687 5.09796875 3.51109375 5.1484375 4.8046875 C5.04399221 20.32581274 5.04399221 20.32581274 11 34 C10.67 34.66 10.34 35.32 10 36 C12.64 36 15.28 36 18 36 C18 36.33 18 36.66 18 37 C16.63064262 37.19171003 15.2532139 37.32606026 13.875 37.4375 C13.10929687 37.51871094 12.34359375 37.59992188 11.5546875 37.68359375 C7.32090409 36.55070064 5.15117638 33.72035354 3 30 C2.06998381 26.6963553 1.80697108 23.48095679 1.625 20.0625 C1.52251953 18.75055664 1.52251953 18.75055664 1.41796875 17.41210938 C1.25458452 15.27644412 1.12389862 13.13831935 1 11 C0.01 11.66 -0.98 12.32 -2 13 C-6.44435518 13.32921149 -10.09965194 13.29432239 -14 11 C-14.8125 8.875 -14.8125 8.875 -15 7 C-11.77208445 4.8480563 -10.71599191 4.79913557 -7 5 C-7 5.99 -7 6.98 -7 8 C-7.99 8.33 -8.98 8.66 -10 9 C-5.03448675 9.35606813 -5.03448675 9.35606813 -0.5625 7.5 C-0.046875 7.005 0.46875 6.51 1 6 C0.67 4.02 0.34 2.04 0 0 Z " fill="#E7E8EA" transform="translate(81,84)"/>
<path d="M0 0 C0.33 1.32 0.66 2.64 1 4 C1.66 3.505 2.32 3.01 3 2.5 C7.11751444 0.44124278 9.41253398 0.49028155 14 1 C16.43119623 2.87015094 17.64069173 4.28138345 19 7 C19.0716735 9.55157655 19.09308442 12.07472971 19.0625 14.625 C19.05798828 15.33140625 19.05347656 16.0378125 19.04882812 16.765625 C19.03703875 18.51045275 19.01910324 20.255237 19 22 C18.34 22 17.68 22 17 22 C16.67 22.66 16.34 23.32 16 24 C15.93941406 22.96359375 15.87882812 21.9271875 15.81640625 20.859375 C15.73196629 19.48957127 15.64732003 18.11978025 15.5625 16.75 C15.52318359 16.06808594 15.48386719 15.38617188 15.44335938 14.68359375 C15.23333528 11.35551959 14.98065998 8.19744598 14 5 C12.14375 4.938125 12.14375 4.938125 10.25 4.875 C9.55390625 4.85179687 8.8578125 4.82859375 8.140625 4.8046875 C5.47960658 5.04748115 4.10192495 5.30549662 2 7 C1.36709679 10.27552279 1.36709679 10.27552279 1.375 14 C1.19368421 20.80631579 1.19368421 20.80631579 -1 23 C-1.02887512 19.35418313 -1.04675585 15.70839537 -1.0625 12.0625 C-1.07087891 11.02158203 -1.07925781 9.98066406 -1.08789062 8.90820312 C-1.09272461 7.42416992 -1.09272461 7.42416992 -1.09765625 5.91015625 C-1.10289307 4.99371338 -1.10812988 4.07727051 -1.11352539 3.13305664 C-1 1 -1 1 0 0 Z " fill="#E9EDF1" transform="translate(66,50)"/>
<path d="M0 0 C0.66 0 1.32 0 2 0 C2 7.26 2 14.52 2 22 C-2.50702654 17.49297346 -5.56515345 13.11065878 -6.25 6.63671875 C-6.25 4.75596541 -6.13642175 2.8757991 -6 1 C-5.67 1.66 -5.34 2.32 -5 3 C-3.02463255 2.65213292 -3.02463255 2.65213292 -1 2 C-0.67 1.34 -0.34 0.68 0 0 Z " fill="#2D6590" transform="translate(111,54)"/>
<path d="M0 0 C2.31 0 4.62 0 7 0 C6.712641 3.44830801 6.23781351 4.76218649 3.75 7.25 C-1.32713344 10.4809031 -6.15884135 10.09900269 -12 10 C-10.68 9.34 -9.36 8.68 -8 8 C-8.99 7.67 -9.98 7.34 -11 7 C-11 5.68 -11 4.36 -11 3 C-4.565 2.505 -4.565 2.505 2 2 C1.34 1.34 0.68 0.68 0 0 Z " fill="#D9DCDF" transform="translate(123,83)"/>
<path d="M0 0 C0.66 0.33 1.32 0.66 2 1 C1 4 1 4 -1.375 5.375 C-4.52442616 7.32464476 -5.4073317 8.66577372 -7 12 C-7.36225681 14.66853296 -7.59800431 17.14041429 -7.6875 19.8125 C-7.72166016 20.50537109 -7.75582031 21.19824219 -7.79101562 21.91210938 C-7.87286344 23.60752849 -7.93812365 25.30373458 -8 27 C-8.99 27 -9.98 27 -11 27 C-12.1266742 19.90195257 -12.74881656 13.23204896 -8.66796875 6.94921875 C-6.10413688 3.81420408 -3.84042944 1.48486239 0 0 Z " fill="#D9DCE0" transform="translate(51,29)"/>
<path d="M0 0 C6.12595664 0.57430843 12.0077392 4.39354523 16 9 C17.16348868 12.49046605 17.16834776 15.32277017 17.1875 19 C17.20167969 20.2375 17.21585938 21.475 17.23046875 22.75 C17 26 17 26 15 29 C15 25.7 15 22.4 15 19 C14.67 19 14.34 19 14 19 C13.938125 17.948125 13.87625 16.89625 13.8125 15.8125 C12.82167769 11.16325686 11.74068329 9.88344337 8 7 C5.06220246 5.49419423 2.07467666 4.19905691 -1 3 C-0.67 2.01 -0.34 1.02 0 0 Z " fill="#D9DADC" transform="translate(113,28)"/>
<path d="M0 0 C0.99 0 1.98 0 3 0 C3.81474962 2.8952173 4.62687322 5.79112828 5.4375 8.6875 C5.66759766 9.50412109 5.89769531 10.32074219 6.13476562 11.16210938 C7.23183446 15.08929781 8.28776908 18.98039791 9 23 C8.34 23 7.68 23 7 23 C6.67 23.66 6.34 24.32 6 25 C5.179478 22.33557431 4.36847695 19.66882724 3.5625 17 C3.33240234 16.25621094 3.10230469 15.51242188 2.86523438 14.74609375 C1.38766009 9.82084612 0.5060554 5.11872129 0 0 Z " fill="#E3E5E7" transform="translate(40,56)"/>
<path d="M0 0 C0.33 0 0.66 0 1 0 C1.10957031 0.67546875 1.21914062 1.3509375 1.33203125 2.046875 C1.49058594 2.93890625 1.64914063 3.8309375 1.8125 4.75 C1.96332031 5.63171875 2.11414063 6.5134375 2.26953125 7.421875 C3.05414248 10.1910911 4.14595359 11.8259401 6 14 C5.67 14.66 5.34 15.32 5 16 C7.64 16 10.28 16 13 16 C13 16.33 13 16.66 13 17 C9.00734815 17.55897126 5.46992467 18.05121885 2.06640625 15.6171875 C-0.48579158 12.78957264 -1.88680901 10.88666276 -2.375 7.0625 C-2.25125 6.381875 -2.1275 5.70125 -2 5 C-1.67 5 -1.34 5 -1 5 C-0.67 3.35 -0.34 1.7 0 0 Z " fill="#D1D3D6" transform="translate(86,104)"/>
<path d="M0 0 C0.33 1.32 0.66 2.64 1 4 C1.66 4 2.32 4 3 4 C2.67 4.99 2.34 5.98 2 7 C1.72926677 10.61407378 1.55448271 14.22779264 1.37890625 17.84765625 C1 21 1 21 -1 23 C-1.02887512 19.35418313 -1.04675585 15.70839537 -1.0625 12.0625 C-1.07087891 11.02158203 -1.07925781 9.98066406 -1.08789062 8.90820312 C-1.09272461 7.42416992 -1.09272461 7.42416992 -1.09765625 5.91015625 C-1.10289307 4.99371338 -1.10812988 4.07727051 -1.11352539 3.13305664 C-1 1 -1 1 0 0 Z " fill="#FDFEFE" transform="translate(66,50)"/>
<path d="M0 0 C0.99 0 1.98 0 3 0 C2.68306247 2.93167219 2.36774166 4.58982661 0.375 6.8125 C-2.8909042 8.4454521 -5.40069002 8.33326944 -9 8 C-9.66 7.34 -10.32 6.68 -11 6 C-9.9275 5.7525 -8.855 5.505 -7.75 5.25 C-3.92991338 3.97663779 -2.66310465 2.85332641 0 0 Z " fill="#3B6E96" transform="translate(80,86)"/>
<path d="M0 0 C-1.49170266 4.9723422 -3.60457417 9.41845739 -6 14 C-6.99 13.67 -7.98 13.34 -9 13 C-7.69045524 8.76916309 -6.16145284 4.872603 -4 1 C-2 0 -2 0 0 0 Z " fill="#DDE0E2" transform="translate(126,64)"/>
<path d="M0 0 C0.33 0.66 0.66 1.32 1 2 C0.22265625 3.91796875 0.22265625 3.91796875 -0.9375 6.1875 C-2.94144972 10.44331074 -3.39624582 13.34411161 -3 18 C-3.66 18 -4.32 18 -5 18 C-6.64345726 15.40506748 -7.09374702 13.58290225 -6.60546875 10.546875 C-5.26396933 5.64000012 -4.43378276 2.81480814 0 0 Z " fill="#EEF1F4" transform="translate(72,36)"/>
<path d="M0 0 C1.2684375 0.495 1.2684375 0.495 2.5625 1 C-0.50389101 4.53814347 -3.04980509 5.56922992 -7.4375 7 C-8.0975 7.99 -8.7575 8.98 -9.4375 10 C-9.7675 9.34 -10.0975 8.68 -10.4375 8 C-4.52065098 0 -4.52065098 0 0 0 Z " fill="#1A1A1A" transform="translate(74.4375,84)"/>
<path d="M0 0 C0.87785156 0.09023438 1.75570312 0.18046875 2.66015625 0.2734375 C4.9375 0.625 4.9375 0.625 6.9375 1.625 C6.9375 2.285 6.9375 2.945 6.9375 3.625 C1.6575 3.295 -3.6225 2.965 -9.0625 2.625 C-7.1411646 -1.21767081 -3.72582959 -0.40605507 0 0 Z " fill="#000000" transform="translate(63.0625,25.375)"/>
<path d="M0 0 C3.96 0.33 7.92 0.66 12 1 C11 3 11 3 9.375 3.625 C6.2339425 4.12095645 3.17398169 4.06103811 0 4 C0 2.68 0 1.36 0 0 Z " fill="#366B93" transform="translate(112,86)"/>
<path d="M0 0 C0.66 0 1.32 0 2 0 C2.33 2.97 2.66 5.94 3 9 C2.34 8.01 1.68 7.02 1 6 C0.34 9.3 -0.32 12.6 -1 16 C-1.33 16 -1.66 16 -2 16 C-1.85833643 14.08302063 -1.71150416 12.16642277 -1.5625 10.25 C-1.48128906 9.18265625 -1.40007812 8.1153125 -1.31640625 7.015625 C-1.05909227 4.56320038 -0.68187782 2.36078709 0 0 Z " fill="#BFC9D1" transform="translate(108,92)"/>
<path d="M0 0 C0.99 0 1.98 0 3 0 C4.20272819 2.40545638 4.10071472 3.94996953 4.0625 6.625 C4.05347656 7.44226562 4.04445313 8.25953125 4.03515625 9.1015625 C4.02355469 9.72804688 4.01195312 10.35453125 4 11 C0.14766248 7.7260295 0.39897904 4.86754429 0 0 Z " fill="#EAEBEC" transform="translate(40,56)"/>
<path d="M0 0 C2.31 0.33 4.62 0.66 7 1 C7 1.66 7 2.32 7 3 C1.06 3 -4.88 3 -11 3 C-11 2.67 -11 2.34 -11 2 C-5.555 1.505 -5.555 1.505 0 1 C0 0.67 0 0.34 0 0 Z " fill="#CDD4DC" transform="translate(64,29)"/>
<path d="M0 0 C0.33 0.66 0.66 1.32 1 2 C-0.6875 4.5 -0.6875 4.5 -3 7 C-5.75 7.3125 -5.75 7.3125 -8 7 C-8 6.34 -8 5.68 -8 5 C-6.20963542 3.99088542 -4.41927083 2.98177083 -2.62890625 1.97265625 C-1.02121854 1.1027487 -1.02121854 1.1027487 0 0 Z " fill="#F0F0F0" transform="translate(65,88)"/>
<path d="M0 0 C2.31 0 4.62 0 7 0 C6.67 1.32 6.34 2.64 6 4 C6 3.01 6 2.02 6 1 C5.34 1 4.68 1 4 1 C3.67 1.99 3.34 2.98 3 4 C1.68 4 0.36 4 -1 4 C-0.67 2.68 -0.34 1.36 0 0 Z " fill="#A7BACB" transform="translate(107,53)"/>
<path d="M0 0 C1.62418745 -0.08090971 3.24951745 -0.13914995 4.875 -0.1875 C5.77992187 -0.22230469 6.68484375 -0.25710937 7.6171875 -0.29296875 C8.79667969 -0.14794922 8.79667969 -0.14794922 10 0 C10.66 0.99 11.32 1.98 12 3 C10.37581255 3.08090971 8.75048255 3.13914995 7.125 3.1875 C5.76761719 3.23970703 5.76761719 3.23970703 4.3828125 3.29296875 C3.20332031 3.14794922 3.20332031 3.14794922 2 3 C1.34 2.01 0.68 1.02 0 0 Z " fill="#D8D9D9" transform="translate(82,28)"/>
<path d="M0 0 C0.33 0 0.66 0 1 0 C1.06058594 0.62648438 1.12117188 1.25296875 1.18359375 1.8984375 C1.26738281 2.71570313 1.35117188 3.53296875 1.4375 4.375 C1.51871094 5.18710938 1.59992188 5.99921875 1.68359375 6.8359375 C1.89090114 9.04272805 1.89090114 9.04272805 3 11 C2.01 11.33 1.02 11.66 0 12 C-2.21538462 4.61538462 -2.21538462 4.61538462 -1.125 1.5 C-0.75375 1.005 -0.3825 0.51 0 0 Z " fill="#1D1D1D" transform="translate(83,105)"/>
<path d="M0 0 C0.33 1.32 0.66 2.64 1 4 C2.65 4 4.3 4 6 4 C5.67 4.66 5.34 5.32 5 6 C3.68 6 2.36 6 1 6 C0.67 6.99 0.34 7.98 0 9 C-0.87890625 2.84765625 -0.87890625 2.84765625 -1 1 C-0.67 0.67 -0.34 0.34 0 0 Z " fill="#FAFAFA" transform="translate(110,86)"/>
<path d="M0 0 C3.96 0 7.92 0 12 0 C12 0.33 12 0.66 12 1 C7.53763531 2.80619523 4.68965706 3.11658501 0 2 C0 1.34 0 0.68 0 0 Z " fill="#5680A2" transform="translate(100,30)"/>
<path d="M0 0 C2.92879371 0.62759865 5.36095629 1.58622659 8 3 C7.01 3 6.02 3 5 3 C5 3.66 5 4.32 5 5 C3.0625 4.1875 3.0625 4.1875 1 3 C0.67 2.01 0.34 1.02 0 0 Z " fill="#E4E6E8" transform="translate(52,90)"/>
<path d="M0 0 C2 3 2 3 2 7 C1.01 7.33 0.02 7.66 -1 8 C-1.625 5.125 -1.625 5.125 -2 2 C-1.34 1.34 -0.68 0.68 0 0 Z " fill="#D6DBE0" transform="translate(44,63)"/>
<path d="M0 0 C0.33 0 0.66 0 1 0 C1.33 2.97 1.66 5.94 2 9 C1.01 9.33 0.02 9.66 -1 10 C-1.33 8.35 -1.66 6.7 -2 5 C-1.67 5 -1.34 5 -1 5 C-0.67 3.35 -0.34 1.7 0 0 Z " fill="#D0D9E2" transform="translate(104,56)"/>
</svg>
