<?xml version="1.0" encoding="UTF-8"?>
<svg version="1.1" xmlns="http://www.w3.org/2000/svg" width="148" height="148">
<path d="M0 0 C14.92956665 11.70849819 24.90112743 27.76273802 28.0546875 46.5078125 C30.5689482 69.40797079 25.77833339 89.64597538 11.59765625 108.00390625 C-0.87740015 122.5119348 -18.45306378 131.62141763 -37.51171875 133.45703125 C-59.89796501 134.7848315 -79.26829524 129.28417886 -96.51171875 114.45703125 C-110.31884086 101.55233542 -118.90209285 83.49543844 -119.76953125 64.65234375 C-120.40985548 43.22717419 -115.151449 25.32607796 -100.90625 8.9453125 C-74.06823732 -18.94345435 -31.27390837 -23.27340222 0 0 Z " fill="#4478A0" transform="translate(119.51171875,14.54296875)"/>
<path d="M0 0 C3.1247393 2.52638496 5.71693873 4.76335194 6.23828125 8.8828125 C6.44173483 15.0292522 5.08745602 18.69343497 2 24 C3.32 24.33 4.64 24.66 6 25 C5.67 25.66 5.34 26.32 5 27 C2.74774934 26.7711617 0.49815183 26.51610777 -1.75 26.25 C-3.62945312 26.04117188 -3.62945312 26.04117188 -5.546875 25.828125 C-9.3370338 24.91917289 -10.66557268 24.05968629 -13 21 C-14.6567674 16.0296978 -15.19255783 9.92204929 -13.17578125 4.98046875 C-9.82235234 -0.14317171 -5.91033236 -1.04166777 0 0 Z " fill="#D78739" transform="translate(98,72)"/>
<path d="M0 0 C1.98 0 3.96 0 6 0 C6.34933594 0.99902344 6.69867188 1.99804688 7.05859375 3.02734375 C7.51807919 4.33078205 7.97772279 5.6341646 8.4375 6.9375 C8.66759766 7.59685547 8.89769531 8.25621094 9.13476562 8.93554688 C10.11964592 12.22328622 10.11964592 12.22328622 12 15 C13.65 10.05 15.3 5.1 17 0 C18.98 0 20.96 0 23 0 C24.19190363 8.34332544 24.09283549 16.59323022 24 25 C22.68 25 21.36 25 20 25 C19.93941406 24.08476563 19.87882812 23.16953125 19.81640625 22.2265625 C19.73261719 21.03804687 19.64882813 19.84953125 19.5625 18.625 C19.48128906 17.44164063 19.40007813 16.25828125 19.31640625 15.0390625 C19.18915064 12.08481099 19.18915064 12.08481099 18 10 C16.35 14.95 14.7 19.9 13 25 C11.68 25 10.36 25 9 25 C7.35 19.39 5.7 13.78 4 8 C3.67 13.61 3.34 19.22 3 25 C1.68 25 0.36 25 -1 25 C-1.11039334 16.59784035 -0.95458649 8.35263176 0 0 Z " fill="#F2F5F8" transform="translate(22,72)"/>
<path d="M0 0 C8.42886336 0.89668759 15.73570392 2.76150935 22.1015625 8.63671875 C24.87431157 12.08839198 26.54132893 15.99465061 28.3449707 20.00268555 C30.52967717 24.63121628 32.6512189 26.94337028 37.30078125 29.0078125 C39.49862437 30.29115078 40.05385838 31.68507482 41 34 C39.68 34.66 38.36 35.32 37 36 C38.98 37.65 40.96 39.3 43 41 C39.60406522 41 38.93380119 40.47834052 36.3125 38.5 C35.68988281 38.0359375 35.06726563 37.571875 34.42578125 37.09375 C33.95527344 36.7328125 33.48476562 36.371875 33 36 C33.33 35.01 33.66 34.02 34 33 C36.0625 32.3125 36.0625 32.3125 38 32 C37.43152344 31.80148438 36.86304688 31.60296875 36.27734375 31.3984375 C30.47155834 28.85901216 27.98220389 25.83324874 25.4375 20.125 C22.10108236 12.73414083 18.66898384 8.04979778 11.1171875 4.734375 C8.43071773 3.73834704 5.73338809 2.8559094 3 2 C2.34 1.67 1.68 1.34 1 1 C1.49371094 1.85980469 1.98742187 2.71960937 2.49609375 3.60546875 C6.99419662 11.78193221 9.11076296 18.47438571 9 28 C9.66 26.35 10.32 24.7 11 23 C13.72426311 25.35277269 14.8141763 27.62496331 16 31 C15.01 30.34 14.02 29.68 13 29 C11.02 29.99 11.02 29.99 9 31 C7.0375426 28.80934988 6.02129969 27.61667661 5.91796875 24.625 C6.00691406 23.75875 6.09585938 22.8925 6.1875 22 C6.40981202 15.86583506 4.32659111 11.86868037 1.3125 6.62890625 C0 4 0 4 0 0 Z " fill="#E3EAF0" transform="translate(84,31)"/>
<path d="M0 0 C3.00694949 0.52621616 3.71761357 0.98799179 5.5 3.4375 C5.8984375 6.46875 5.8984375 6.46875 5.875 9.9375 C5.88273437 11.0821875 5.89046875 12.226875 5.8984375 13.40625 C5.5 16.4375 5.5 16.4375 4.1328125 18.3125 C2.5 19.4375 2.5 19.4375 0 19.9375 C-2.5 19.4375 -2.5 19.4375 -4.3125 17.5625 C-5.9590371 13.22950763 -6.25993422 9.01945631 -5.5 4.4375 C-3.17336203 0.55533835 -3.17336203 0.55533835 0 0 Z " fill="#47799E" transform="translate(93.5,74.5625)"/>
<path d="M0 0 C1.32 0 2.64 0 4 0 C4.50559908 1.43554025 5.0042749 2.8735202 5.5 4.3125 C5.7784375 5.11300781 6.056875 5.91351563 6.34375 6.73828125 C7 9 7 9 7 12 C7.66 12 8.32 12 9 12 C9.144375 10.7625 9.28875 9.525 9.4375 8.25 C9.78688502 5.43495501 10.20379366 2.7298503 11 0 C12.32 0 13.64 0 15 0 C14.54210293 7.93688263 12.44979009 16.76076048 6.50390625 22.34375 C3.69878915 24.19924087 2.29230846 24.37626382 -1 24 C-1 23.01 -1 22.02 -1 21 C0.65 20.34 2.3 19.68 4 19 C3.26309887 12.51527007 1.64681249 6.30760257 0 0 Z " fill="#F2F5F8" transform="translate(49,79)"/>
<path d="M0 0 C0.33 0.99 0.66 1.98 1 3 C-1.31 3.33 -3.62 3.66 -6 4 C-6.33 5.65 -6.66 7.3 -7 9 C-6.278125 9.2475 -5.55625 9.495 -4.8125 9.75 C-1.62487696 11.16672135 0.56177223 12.49210858 3 15 C3.625 18 3.625 18 3 21 C0.20833617 24.2146432 -1.37583423 24.93543113 -5.625 25.375 C-9 25 -9 25 -12 23 C-12 22.34 -12 21.68 -12 21 C-9.03 21 -6.06 21 -3 21 C-2.67 19.68 -2.34 18.36 -2 17 C-2.63808594 16.56429687 -3.27617188 16.12859375 -3.93359375 15.6796875 C-10.65653138 10.83413807 -10.65653138 10.83413807 -12.3125 6.8125 C-12 4 -12 4 -10.5625 1.625 C-6.87877417 -0.71102126 -4.31376798 -0.28758453 0 0 Z " fill="#DE8833" transform="translate(79,72)"/>
<path d="M0 0 C1.32 0 2.64 0 4 0 C4 7.26 4 14.52 4 22 C6.64 22 9.28 22 12 22 C12 22.99 12 23.98 12 25 C8.04 25 4.08 25 0 25 C0 16.75 0 8.5 0 0 Z " fill="#DB8737" transform="translate(107,72)"/>
<path d="M0 0 C1.9375 0.6875 1.9375 0.6875 2.9375 2.6875 C1.7309375 3.120625 1.7309375 3.120625 0.5 3.5625 C-2.1951468 4.42012568 -2.1951468 4.42012568 -3.0625 6.6875 C-3.18398305 8.30915752 -3.23793652 9.93634327 -3.25 11.5625 C-3.26417969 12.42617187 -3.27835937 13.28984375 -3.29296875 14.1796875 C-3.04675633 16.85881253 -2.5521851 18.45549724 -1.0625 20.6875 C1.49269921 21.49921228 1.49269921 21.49921228 3.9375 21.6875 C3.6075 22.3475 3.2775 23.0075 2.9375 23.6875 C-3.53880923 24.05408354 -3.53880923 24.05408354 -5.9375 22.375 C-9.02423611 17.74489584 -8.63292095 12.01903452 -8.0625 6.6875 C-6.55685306 2.9983082 -4.41312426 -0.66865519 0 0 Z " fill="#E08832" transform="translate(92.0625,72.3125)"/>
<path d="M0 0 C2.80216283 4.20324425 3.2164899 6.58313851 3.5625 11.625 C3.64628906 12.81351563 3.73007813 14.00203125 3.81640625 15.2265625 C3.87699219 16.14179687 3.93757813 17.05703125 4 18 C4.66 16.35 5.32 14.7 6 13 C8.72426311 15.35277269 9.8141763 17.62496331 11 21 C10.01 20.34 9.02 19.68 8 19 C6.02 19.99 6.02 19.99 4 21 C1.95371454 18.7293177 1.03977851 17.46826979 0.77734375 14.37890625 C0.83019531 13.44949219 0.88304688 12.52007812 0.9375 11.5625 C1.16045763 7.45207597 0.74768697 4.74698646 -1 1 C-0.67 0.67 -0.34 0.34 0 0 Z " fill="#D4DFE8" transform="translate(89,41)"/>
<path d="M0 0 C0.33 0.66 0.66 1.32 1 2 C1.99 2 2.98 2 4 2 C4 4.31 4 6.62 4 9 C3.34 8.34 2.68 7.68 2 7 C1.34 8.98 0.68 10.96 0 13 C-0.66 13 -1.32 13 -2 13 C-2.33 13.66 -2.66 14.32 -3 15 C-3.66 14.67 -4.32 14.34 -5 14 C-3.35 9.38 -1.7 4.76 0 0 Z " fill="#D9E3EB" transform="translate(38,75)"/>
<path d="M0 0 C3.57104439 1.87949705 5.54744301 3.17053157 7 7 C5.02 7.99 5.02 7.99 3 9 C4.98 10.65 6.96 12.3 9 14 C5.60406522 14 4.93380119 13.47834052 2.3125 11.5 C1.68988281 11.0359375 1.06726563 10.571875 0.42578125 10.09375 C-0.27998047 9.55234375 -0.27998047 9.55234375 -1 9 C-0.67 8.01 -0.34 7.02 0 6 C2.0625 5.3125 2.0625 5.3125 4 5 C2.35 3.68 0.7 2.36 -1 1 C-0.67 0.67 -0.34 0.34 0 0 Z " fill="#DAE3EB" transform="translate(118,58)"/>
<path d="M0 0 C1.32 0 2.64 0 4 0 C3.25 7.625 3.25 7.625 1 11 C0.67 10.34 0.34 9.68 0 9 C-0.99 9.495 -0.99 9.495 -2 10 C-1.34 6.7 -0.68 3.4 0 0 Z " fill="#E8EDF2" transform="translate(60,79)"/>
<path d="M0 0 C3.3 0.99 6.6 1.98 10 3 C9.67 3.66 9.34 4.32 9 5 C9.33 5.99 9.66 6.98 10 8 C6.6875 7.8125 6.6875 7.8125 3 7 C1.07828158 4.58235424 0 3.11532786 0 0 Z " fill="#5F8CAE" transform="translate(85,32)"/>
<path d="M0 0 C2.31 0 4.62 0 7 0 C7 1.32 7 2.64 7 4 C4.69 4 2.38 4 0 4 C0 2.68 0 1.36 0 0 Z " fill="#857E79" transform="translate(121,93)"/>
<path d="M0 0 C2.72426311 2.35277269 3.8141763 4.62496331 5 8 C4.01 7.34 3.02 6.68 2 6 C1.01 6.495 1.01 6.495 0 7 C-0.38133299 5.0085944 -0.71325582 3.00720923 -1 1 C-0.67 0.67 -0.34 0.34 0 0 Z " fill="#D8E2EA" transform="translate(95,54)"/>
<path d="M0 0 C0 1.66666667 0 3.33333333 0 5 C-1.65 5 -3.3 5 -5 5 C-5 4.01 -5 3.02 -5 2 C-3.35 1.34 -1.7 0.68 0 0 Z " fill="#DCE5EC" transform="translate(53,98)"/>
<path d="M0 0 C1.42944945 2.35438733 2.08661261 3.48032433 1.625 6.25 C1.41875 6.8275 1.2125 7.405 1 8 C0.01 7.67 -0.98 7.34 -2 7 C-1.34 4.69 -0.68 2.38 0 0 Z " fill="#5283A8" transform="translate(40,80)"/>
</svg>
